<?xml version="1.0" encoding="UTF-8" standalone="no"?>
<!DOCTYPE svg PUBLIC "-//W3C//DTD SVG 1.1//EN" "http://www.w3.org/Graphics/SVG/1.1/DTD/svg11.dtd">
<svg width="100%" height="100%" viewBox="0 0 100 100" version="1.1" fill="currentColor" xmlns="http://www.w3.org/2000/svg" xmlns:xlink="http://www.w3.org/1999/xlink" xml:space="preserve" xmlns:serif="http://www.serif.com/" style="fill-rule:evenodd;clip-rule:evenodd;stroke-linejoin:round;stroke-miterlimit:2;">
    <g transform="matrix(1,0,0,1,7.10543e-15,-788.209)">
        <g id="Chat-Icon" serif:id="Chat Icon" transform="matrix(0.493919,0,0,0.493919,45.7323,662.754)">
            <rect x="-92.591" y="254" width="202.462" height="202.462" style="fill:none;"/>
            <g transform="matrix(2.02462,0,0,2.02462,-99.0812,-1341.83)">
                <path d="M27.328,859.726C21.517,854.038 17.974,846.489 17.974,838.209C17.974,820.534 34.121,806.183 54.009,806.183C73.897,806.183 90.043,820.534 90.043,838.209C90.043,855.885 73.897,870.235 54.009,870.235C48.703,870.235 43.663,869.214 39.127,867.381C26.845,872.988 15.722,868.668 16.397,868.314C21.594,865.59 25.059,862.637 27.328,859.726ZM32.239,863.281C33.996,860.859 33.723,857.5 31.57,855.392C26.923,850.844 24.038,844.83 24.038,838.209C24.038,823.671 37.651,812.248 54.009,812.248C70.366,812.248 83.979,823.671 83.979,838.209C83.979,852.747 70.366,864.171 54.009,864.171C49.513,864.171 45.242,863.311 41.399,861.758C39.855,861.134 38.123,861.173 36.609,861.864C35.187,862.513 33.708,862.97 32.239,863.281Z"/>
            </g>
        </g>
    </g>
</svg>
